<svg width="440" height="314" viewBox="0 0 440 314" fill="none" xmlns="http://www.w3.org/2000/svg">
<path d="M14 291.749C47.7693 280.254 165.818 257.273 367.856 257.311C620.405 257.358 127.126 213.099 14 291.749Z" fill="#C5CEE0"/>
<path d="M14.2104 288.871C47.9797 277.376 166.028 254.395 368.067 254.433C620.615 254.481 127.337 210.221 14.2104 288.871Z" fill="#8F9BB3"/>
<path d="M16.5451 74.4597C15.9913 72.7274 15.7838 71.5353 15.9225 70.8834C16.0361 70.1528 16.6047 69.6239 17.6283 69.2966C18.652 68.9694 19.9919 69.4957 21.648 70.8756C23.3042 72.2555 24.4344 73.8903 25.0385 75.7801C27.0523 82.0793 28.9943 92.0901 30.8643 105.812C32.7879 119.431 33.5145 133.649 33.0443 148.466C37.1785 129.093 40.8104 115.477 43.9399 107.621C47.0694 99.7638 50.4845 95.2439 54.1853 94.0608C56.0751 93.4566 58.7439 94.3392 62.1918 96.7084C65.6933 98.9738 68.0481 101.996 69.2564 105.776C70.4647 109.555 71.0802 115.824 71.103 124.583C71.1005 133.262 70.8073 140.082 70.2233 145.042C69.6928 149.898 68.5615 152.603 66.8292 153.157C65.5693 153.56 64.7254 153.092 64.2975 151.753C63.8444 150.336 63.6197 148.412 63.6236 145.98C63.6022 143.47 63.6693 140.151 63.8248 136.022C64.4112 122.383 63.8737 112.964 62.2123 107.767C61.6585 106.035 60.6417 104.755 59.1617 103.926C57.7353 102.993 56.5497 102.678 55.6048 102.98C53.3213 103.71 51.2892 106.312 49.5086 110.787C47.8067 115.237 46.1487 120.367 44.5346 126.177C42.8953 131.908 41.9812 135.021 41.7921 135.515C41.6817 135.985 41.5304 136.597 41.338 137.353C41.1457 138.109 40.7895 139.438 40.2693 141.34C39.7239 143.163 38.9011 146.29 37.8007 150.721C35.6568 159.217 34.3486 163.541 33.8761 163.692C33.0887 163.944 32.007 163.682 30.631 162.907C29.2297 162.053 28.3781 161.154 28.076 160.209C27.7488 159.185 27.4912 156.751 27.3033 152.905C26.8319 138.128 26.1108 126.642 25.1399 118.447C23.0853 100.618 20.2203 85.9558 16.5451 74.4597Z" fill="#C5CEE0"/>
<path d="M95.9474 130.439C98.3612 125.502 99.7185 120.382 100.019 115.078C100.399 109.749 100.009 105.274 98.8513 101.652C97.6934 98.03 96.0817 95.1605 94.0164 93.0435C92.0045 90.8227 89.824 89.5671 87.4746 89.2767C81.3419 92.6259 77.3343 98.5502 75.4517 107.05C73.5692 115.549 73.874 123.697 76.3661 131.492C78.254 137.398 81.4324 140.417 85.9013 140.551C90.1598 138.669 93.5085 135.298 95.9474 130.439ZM66.9468 113.023C67.6321 106.208 69.5896 100.115 72.8192 94.743C76.1023 89.2672 80.0274 85.7993 84.5944 84.3393C89.2401 82.8541 93.4915 83.6646 97.3485 86.771C101.259 89.7734 104.045 93.8731 105.707 99.07C108.677 108.361 108.402 117.953 104.881 127.844C101.361 137.735 95.624 143.952 87.6712 146.494C83.7341 147.753 80.0181 146.988 76.5231 144.2C73.0281 141.412 70.387 137.222 68.5997 131.632C66.7873 125.962 66.2363 119.76 66.9468 113.023Z" fill="#C5CEE0"/>
<path d="M136.941 79.8416L143.638 102.826C146.105 110.542 148.336 116.165 150.332 119.692C152.938 113.999 154.855 108.049 156.081 101.842C157.308 95.635 157.911 90.1915 157.891 85.5116C157.923 80.7277 157.833 76.3737 157.62 72.4496C157.382 68.4467 157.29 65.3083 157.344 63.0345C157.452 60.6568 158.018 59.3043 159.041 58.9771C160.931 58.3729 162.556 60.1968 163.915 64.4488C165.249 68.6221 165.461 75.8011 164.551 85.9858C163.616 96.0918 161.962 105.169 159.588 113.218C157.189 121.189 154.533 125.64 151.62 126.571C150.517 126.923 149.628 126.991 148.951 126.773C148.248 126.477 147.291 125.655 146.079 124.307C143.734 121.585 140.925 115.106 137.652 104.87C134.38 94.6334 131.847 85.8964 130.054 78.6587C128.924 98.2001 127.61 112.55 126.111 121.708C124.613 130.865 122.722 135.809 120.438 136.539C119.415 136.867 118.435 136.789 117.5 136.307C113.759 134.379 109.107 126.884 103.542 113.822C98.0314 100.656 94.4075 91.3563 92.6706 85.9232C91.6385 82.6948 92.0674 80.7786 93.9572 80.1744C95.6895 79.6206 97.629 81.3439 99.7757 85.3441C100.899 87.5017 103.153 93.4641 106.536 103.231C109.997 112.973 114.045 121.833 118.678 129.812C120.072 122.77 121.108 114.064 121.785 103.694C122.461 93.3231 123.136 85.253 123.808 79.4836C124.534 73.6103 125.803 70.3841 127.614 69.8052C129.661 69.1507 131.368 69.6031 132.734 71.1624C134.18 72.6965 135.582 75.5896 136.941 79.8416Z" fill="#C5CEE0"/>
<path d="M199.545 57.6146C200.028 65.0976 200.306 73.297 200.379 82.2128C200.506 91.0247 200.909 96.4937 201.588 98.6197C202.268 100.746 203.671 101.469 205.797 100.789C209.577 99.5809 213.183 97.56 216.617 94.7266C220.025 91.8144 221.887 90.308 222.202 90.2073C223.304 89.8549 224.006 90.1511 224.308 91.096C224.913 92.9858 223.425 95.9347 219.846 99.9428C216.346 103.926 212.785 106.496 209.163 107.654C205.62 108.787 202.56 108.854 199.984 107.855C197.383 106.777 195.73 105.136 195.026 102.931C194.321 100.726 193.876 97.5704 193.691 93.4636C193.507 89.3568 193.376 84.0611 193.299 77.5766C193.276 70.9881 193.146 65.5618 192.911 61.2975C188.832 63.4694 186.32 64.7064 185.376 65.0085C184.509 65.2854 183.465 65.1418 182.244 64.5777C181.022 64.0136 180.298 63.3772 180.071 62.6686C179.618 61.2512 183.708 58.1644 192.342 53.4082C191.591 46.4448 190.499 40.719 189.064 36.2307C188.309 33.8685 188.521 32.4986 189.703 32.121C190.647 31.8189 191.964 32.1358 193.652 33.0716C195.393 33.9036 196.528 35.1463 197.057 36.7999C197.56 38.3747 198.198 42.8138 198.971 50.1174C204.231 47.5679 208.003 45.9282 210.286 45.1981C214.381 43.8892 216.692 44.0615 217.221 45.715C217.523 46.6599 216.817 47.71 215.104 48.8653L199.545 57.6146Z" fill="#C5CEE0"/>
<path d="M240.892 84.102C243.306 79.1645 244.663 74.044 244.964 68.7406C245.343 63.412 244.954 58.9367 243.796 55.3146C242.638 51.6925 241.026 48.823 238.961 46.7061C236.949 44.4852 234.769 43.2296 232.419 42.9392C226.286 46.2884 222.279 52.2128 220.396 60.7123C218.514 69.2119 218.819 77.3593 221.311 85.1547C223.199 91.0602 226.377 94.0798 230.846 94.2133C235.104 92.3312 238.453 88.9607 240.892 84.102ZM211.891 66.6858C212.577 59.8708 214.534 53.7774 217.764 48.4055C221.047 42.9297 224.972 39.4618 229.539 38.0018C234.185 36.5166 238.436 37.3271 242.293 40.4335C246.204 43.4359 248.99 47.5356 250.651 52.7325C253.622 62.0239 253.346 71.6151 249.826 81.5063C246.305 91.3974 240.569 97.6142 232.616 100.157C228.679 101.415 224.963 100.65 221.468 97.8623C217.973 95.0742 215.332 90.8848 213.544 85.2942C211.732 79.6249 211.181 73.4221 211.891 66.6858Z" fill="#C5CEE0"/>
<path d="M83.54 112.142C94.668 112.142 106.795 114.425 119.92 118.99C133.188 123.555 145.457 129.547 156.728 136.966C168.141 144.385 177.629 153.301 185.19 163.716C192.894 174.131 196.746 184.688 196.746 195.388C196.746 203.377 190.255 213.364 177.272 225.348C164.432 237.189 149.523 247.461 132.546 256.164C115.569 264.867 101.659 269.218 90.816 269.218C88.3907 269.218 84.4673 266.079 79.046 259.802C73.7673 253.382 71.128 248.674 71.128 245.678C71.128 239.829 74.98 223.565 82.684 196.886C90.5307 170.065 95.3813 151.661 97.236 141.674C92.1 138.25 87.82 134.184 84.396 129.476C80.972 124.625 79.26 120.559 79.26 117.278C79.26 113.854 80.6867 112.142 83.54 112.142ZM165.93 189.396C165.93 184.831 161.721 178.839 153.304 171.42C144.887 163.859 135.114 157.581 123.986 152.588C123.13 163.288 117.067 186.186 105.796 221.282C105.225 223.137 104.298 226.204 103.014 230.484C101.873 234.621 101.017 237.403 100.446 238.83C114.427 234.122 128.837 226.204 143.674 215.076C158.511 203.805 165.93 195.245 165.93 189.396Z" fill="#C5CEE0"/>
<path d="M277.213 188.968C282.92 188.968 286.986 189.539 289.411 190.68C291.979 191.679 293.263 193.605 293.263 196.458C293.263 200.31 287.057 204.233 274.645 208.228C274.931 219.071 275.073 229.485 275.073 239.472C275.073 249.316 274.289 256.735 272.719 261.728C271.15 266.579 268.653 269.004 265.229 269.004C261.805 269.004 259.095 267.292 257.097 263.868C255.243 260.301 253.673 254.523 252.389 246.534C251.248 238.545 250.035 227.987 248.751 214.862C234.199 218.143 223.713 220.783 217.293 222.78C206.165 253.596 198.747 269.004 195.037 269.004C192.041 269.004 188.047 267.007 183.053 263.012C178.203 259.017 175.777 254.88 175.777 250.6C175.777 248.175 178.559 240.613 184.123 227.916C181.698 226.347 179.558 224.135 177.703 221.282C175.991 218.286 175.135 215.433 175.135 212.722C175.135 208.014 182.197 203.52 196.321 199.24C197.463 196.387 198.604 193.177 199.745 189.61C201.029 185.901 204.097 177.341 208.947 163.93C213.941 150.519 217.864 139.32 220.717 130.332C222.001 126.052 226.424 122.057 233.985 118.348C241.689 114.639 247.681 112.784 251.961 112.784C256.955 112.784 261.377 119.703 265.229 133.542C269.224 147.381 272.006 165.856 273.575 188.968H277.213ZM227.779 192.606C232.059 192.035 238.265 191.322 246.397 190.466C245.969 186.329 245.256 179.267 244.257 169.28C243.401 159.293 242.759 152.089 242.331 147.666C239.906 155.655 235.055 170.635 227.779 192.606Z" fill="#C5CEE0"/>
<path d="M292.382 112.142C303.51 112.142 315.637 114.425 328.762 118.99C342.03 123.555 354.3 129.547 365.57 136.966C376.984 144.385 386.471 153.301 394.032 163.716C401.736 174.131 405.588 184.688 405.588 195.388C405.588 203.377 399.097 213.364 386.114 225.348C373.274 237.189 358.366 247.461 341.388 256.164C324.411 264.867 310.501 269.218 299.658 269.218C297.233 269.218 293.31 266.079 287.888 259.802C282.61 253.382 279.97 248.674 279.97 245.678C279.97 239.829 283.822 223.565 291.526 196.886C299.373 170.065 304.224 151.661 306.078 141.674C300.942 138.25 296.662 134.184 293.238 129.476C289.814 124.625 288.102 120.559 288.102 117.278C288.102 113.854 289.529 112.142 292.382 112.142ZM374.772 189.396C374.772 184.831 370.564 178.839 362.146 171.42C353.729 163.859 343.956 157.581 332.828 152.588C331.972 163.288 325.909 186.186 314.638 221.282C314.068 223.137 313.14 226.204 311.856 230.484C310.715 234.621 309.859 237.403 309.288 238.83C323.27 234.122 337.679 226.204 352.516 215.076C367.354 203.805 374.772 195.245 374.772 189.396Z" fill="#C5CEE0"/>
<path d="M90.54 109.142C101.668 109.142 113.795 111.425 126.92 115.99C140.188 120.555 152.457 126.547 163.728 133.966C175.141 141.385 184.629 150.301 192.19 160.716C199.894 171.131 203.746 181.688 203.746 192.388C203.746 200.377 197.255 210.364 184.272 222.348C171.432 234.189 156.523 244.461 139.546 253.164C122.569 261.867 108.659 266.218 97.816 266.218C95.3907 266.218 91.4673 263.079 86.046 256.802C80.7673 250.382 78.128 245.674 78.128 242.678C78.128 236.829 81.98 220.565 89.684 193.886C97.5307 167.065 102.381 148.661 104.236 138.674C99.1 135.25 94.82 131.184 91.396 126.476C87.972 121.625 86.26 117.559 86.26 114.278C86.26 110.854 87.6867 109.142 90.54 109.142ZM172.93 186.396C172.93 181.831 168.721 175.839 160.304 168.42C151.887 160.859 142.114 154.581 130.986 149.588C130.13 160.288 124.067 183.186 112.796 218.282C112.225 220.137 111.298 223.204 110.014 227.484C108.873 231.621 108.017 234.403 107.446 235.83C121.427 231.122 135.837 223.204 150.674 212.076C165.511 200.805 172.93 192.245 172.93 186.396Z" fill="#8F9BB3"/>
<path d="M284.213 185.968C289.92 185.968 293.986 186.539 296.411 187.68C298.979 188.679 300.263 190.605 300.263 193.458C300.263 197.31 294.057 201.233 281.645 205.228C281.931 216.071 282.073 226.485 282.073 236.472C282.073 246.316 281.289 253.735 279.719 258.728C278.15 263.579 275.653 266.004 272.229 266.004C268.805 266.004 266.095 264.292 264.097 260.868C262.243 257.301 260.673 251.523 259.389 243.534C258.248 235.545 257.035 224.987 255.751 211.862C241.199 215.143 230.713 217.783 224.293 219.78C213.165 250.596 205.747 266.004 202.037 266.004C199.041 266.004 195.047 264.007 190.053 260.012C185.203 256.017 182.777 251.88 182.777 247.6C182.777 245.175 185.559 237.613 191.123 224.916C188.698 223.347 186.558 221.135 184.703 218.282C182.991 215.286 182.135 212.433 182.135 209.722C182.135 205.014 189.197 200.52 203.321 196.24C204.463 193.387 205.604 190.177 206.745 186.61C208.029 182.901 211.097 174.341 215.947 160.93C220.941 147.519 224.864 136.32 227.717 127.332C229.001 123.052 233.424 119.057 240.985 115.348C248.689 111.639 254.681 109.784 258.961 109.784C263.955 109.784 268.377 116.703 272.229 130.542C276.224 144.381 279.006 162.856 280.575 185.968H284.213ZM234.779 189.606C239.059 189.035 245.265 188.322 253.397 187.466C252.969 183.329 252.256 176.267 251.257 166.28C250.401 156.293 249.759 149.089 249.331 144.666C246.906 152.655 242.055 167.635 234.779 189.606Z" fill="#8F9BB3"/>
<path d="M299.382 109.142C310.51 109.142 322.637 111.425 335.762 115.99C349.03 120.555 361.3 126.547 372.57 133.966C383.984 141.385 393.471 150.301 401.032 160.716C408.736 171.131 412.588 181.688 412.588 192.388C412.588 200.377 406.097 210.364 393.114 222.348C380.274 234.189 365.366 244.461 348.388 253.164C331.411 261.867 317.501 266.218 306.658 266.218C304.233 266.218 300.31 263.079 294.888 256.802C289.61 250.382 286.97 245.674 286.97 242.678C286.97 236.829 290.822 220.565 298.526 193.886C306.373 167.065 311.224 148.661 313.078 138.674C307.942 135.25 303.662 131.184 300.238 126.476C296.814 121.625 295.102 117.559 295.102 114.278C295.102 110.854 296.529 109.142 299.382 109.142ZM381.772 186.396C381.772 181.831 377.564 175.839 369.146 168.42C360.729 160.859 350.956 154.581 339.828 149.588C338.972 160.288 332.909 183.186 321.638 218.282C321.068 220.137 320.14 223.204 318.856 227.484C317.715 231.621 316.859 234.403 316.288 235.83C330.27 231.122 344.679 223.204 359.516 212.076C374.354 200.805 381.772 192.245 381.772 186.396Z" fill="#8F9BB3"/>
</svg>
